<svg width="64" height="64" viewBox="0 0 64 64" xmlns="http://www.w3.org/2000/svg">
  <!-- Main gradient background -->
  <circle cx="32" cy="32" r="32" fill="url(#mainGradient)" />
  
  <!-- Calendar base -->
  <rect x="16" y="18" width="32" height="28" rx="4" fill="white" stroke="none" />
  
  <!-- Calendar header -->
  <rect x="16" y="14" width="32" height="8" rx="4" fill="white" />
  <rect x="18" y="16" width="28" height="4" rx="2" fill="#f1f5f9" />
  
  <!-- Calendar binding rings -->
  <circle cx="24" cy="14" r="2" fill="#64748b" />
  <circle cx="32" cy="14" r="2" fill="#64748b" />
  <circle cx="40" cy="14" r="2" fill="#64748b" />
  
  <!-- Calendar grid lines -->
  <line x1="20" y1="26" x2="44" y2="26" stroke="#e2e8f0" stroke-width="1"/>
  <line x1="20" y1="32" x2="44" y2="32" stroke="#e2e8f0" stroke-width="1"/>
  <line x1="20" y1="38" x2="44" y2="38" stroke="#e2e8f0" stroke-width="1"/>
  
  <line x1="26" y1="22" x2="26" y2="42" stroke="#e2e8f0" stroke-width="1"/>
  <line x1="32" y1="22" x2="32" y2="42" stroke="#e2e8f0" stroke-width="1"/>
  <line x1="38" y1="22" x2="38" y2="42" stroke="#e2e8f0" stroke-width="1"/>
  
  <!-- Leave approval checkmark -->
  <circle cx="42" cy="42" r="8" fill="#10b981" />
  <path d="M38 42 L41 45 L46 38" stroke="white" stroke-width="2.5" fill="none" stroke-linecap="round" stroke-linejoin="round" />
  
  <!-- Small date indicators -->
  <circle cx="23" cy="29" r="1.5" fill="#3b82f6" />
  <circle cx="29" cy="35" r="1.5" fill="#8b5cf6" />
  <circle cx="35" cy="29" r="1.5" fill="#06b6d4" />
  
  <!-- Gradient definitions -->
  <defs>
    <linearGradient id="mainGradient" x1="0%" y1="0%" x2="100%" y2="100%">
      <stop offset="0%" style="stop-color:#3b82f6;stop-opacity:1" />
      <stop offset="50%" style="stop-color:#6366f1;stop-opacity:1" />
      <stop offset="100%" style="stop-color:#8b5cf6;stop-opacity:1" />
    </linearGradient>
  </defs>
</svg>
